<svg height='100px' width='100px'  fill="#d31515" xmlns="http://www.w3.org/2000/svg" xmlns:xlink="http://www.w3.org/1999/xlink" version="1.1" x="0px" y="0px" viewBox="0 0 100 100" style="enable-background:new 0 0 100 100;" xml:space="preserve"><path d="M39.4,47.2h21.2c0.4,0,0.7-0.2,0.9-0.5c0.2-0.3,0.2-0.7,0-1L43.8,18.5c-0.2-0.3-0.5-0.5-0.8-0.5H21.7  c-0.4,0-0.7,0.2-0.9,0.5c-0.2,0.3-0.2,0.7,0,1l17.7,27.2C38.7,47,39,47.2,39.4,47.2z M42.4,20l16.4,25.2H39.9L23.5,20H42.4z   M50,51.1c-8.5,0-15.4,6.9-15.4,15.4S41.5,82,50,82c8.5,0,15.4-6.9,15.4-15.4S58.5,51.1,50,51.1z M50,80c-7.4,0-13.4-6-13.4-13.4  c0-7.4,6-13.4,13.4-13.4c7.4,0,13.4,6,13.4,13.4C63.4,74,57.4,80,50,80z M79.2,19.5L63,44.3l-1.2-1.8L76.5,20H57.6l-5.2,8l-1.2-1.8  l5.1-7.8c0.2-0.3,0.5-0.5,0.8-0.5h21.2c0.4,0,0.7,0.2,0.9,0.5S79.4,19.2,79.2,19.5z"></path></svg>