<svg height='100px' width='100px'  fill="#d31515" xmlns:rdf="http://www.w3.org/1999/02/22-rdf-syntax-ns#" xmlns="http://www.w3.org/2000/svg" xmlns:cc="http://creativecommons.org/ns#" xmlns:dc="http://purl.org/dc/elements/1.1/" version="1.1" x="0px" y="0px" viewBox="0 0 100 100"><g transform="translate(0,-952.36218)"><path style="baseline-shift:baseline;block-progression:tb;color:#000000;direction:ltr;text-indent:0;enable-background:accumulate;text-transform:none;" fill="#d31515" d="m33.266,964.51c-5.0937,0-9.7245,0.98635-13.156,2.6562-3.4318,1.6699-5.8125,4.122-5.8125,7.0938,0,0.18573,0.01315,0.38089,0.03125,0.5625,0.001,0.0105-0.001,0.0208,0,0.0312-0.00016,0.0104-0.00016,0.0208,0,0.0312-0.0236,0.0916-0.03425,0.18665-0.03125,0.28125v8.3125c-0.006,0.0623-0.006,0.12518,0,0.1875v10.812c-0.006,0.0623-0.006,0.12518,0,0.1875v10.844c-0.006,0.062-0.006,0.1252,0,0.1875v10.625c-1.7247,1.4195-3.1956,2.9191-4.3125,4.4375-1.9058,2.5908-2.8708,5.3156-2.3125,7.6875a1.0064,1.0064,0,0,0,0.09375,0.625l0.375,0.6875,3.5938,6.875c1.3792,2.6315,4.6186,3.6838,8.4375,3.5625s8.3962-1.4084,12.906-3.7812c0.31725-0.167,0.62909-0.327,0.9375-0.5,0.56419,0.3673,1.1638,0.7158,1.8125,1.0312,3.4372,1.6713,8.062,2.6875,13.156,2.6875,5.0943,0,9.7244-1.0159,13.156-2.6875,3.4319-1.6716,5.8125-4.0925,5.8125-7.0625v-1.7812c1.7588,0.2673,3.6292,0.4062,5.5625,0.4062,5.0942,0,9.7243-0.9846,13.156-2.6562,3.4319-1.6717,5.8125-4.1237,5.8125-7.0938v-7.4062c0.001-0.031,0.001-0.062,0-0.094v-8.0625c0.001-0.031,0.001-0.062,0-0.094v-7.5938c-0.00017-0.0308,0.00068-0.063,0-0.0937,0.00016-0.0104,0.00016-0.0208,0-0.0312-0.0807-2.9028-2.4401-5.2965-5.8125-6.9375-3.4318-1.6699-8.0626-2.6562-13.156-2.6562-5.0937,0-9.7245,0.98636-13.156,2.6562-3.3605,1.6352-5.7161,4.0172-5.8125,6.9062-0.004,0.052-0.004,0.10427,0,0.15625-0.00006,0.0103,0,0.0212,0,0.0312v7.5313c-0.003,0.042-0.003,0.083,0,0.125v8.0312c-0.003,0.042-0.003,0.083,0,0.125v1.4063c-0.73779-0.1122-1.5088-0.1832-2.2812-0.25v-37.344c-0.0005-0.11706-0.0218-0.234-0.0625-0.34375,0.001-0.0101-0.00096-0.0213,0-0.0312,0.0163-0.17177,0.03125-0.35581,0.03125-0.53125,0-2.9717-2.3807-5.4239-5.8125-7.0938s-8.0626-2.6562-13.156-2.6562zm0,2c4.8315,0,9.2088,0.97367,12.281,2.4688,3.0725,1.4951,4.6875,3.4233,4.6875,5.2812s-1.615,3.7862-4.6875,5.2812-7.4498,2.4688-12.281,2.4688c-4.8315,0-9.1775-0.97373-12.25-2.4688s-4.7188-3.4234-4.7188-5.2812c0-1.8579,1.6463-3.7862,4.7188-5.2812,3.0725-1.4951,7.4185-2.4688,12.25-2.4688zm17,12.125,0,4.75c-0.0236,0.0916-0.03425,0.18665-0.03125,0.28125,0,1.8594-1.6153,3.7864-4.6875,5.2812-3.0722,1.4949-7.4502,2.4688-12.281,2.4688-4.8311,0-9.1778-0.97385-12.25-2.4688-3.0722-1.4949-4.7188-3.4218-4.7188-5.2812,0.006-0.0623,0.006-0.12518,0-0.1875v-4.8125c0.99406,1.0311,2.2838,1.9436,3.8125,2.6875,3.4318,1.6699,8.0626,2.6562,13.156,2.6562,5.0937,0,9.7245-0.98636,13.156-2.6562,1.5444-0.75151,2.8463-1.6744,3.8438-2.7188zm23.25,9.1562c4.8315,0,9.1775,0.97368,12.25,2.4688,3.0554,1.4868,4.7007,3.4016,4.7188,5.25v0.0312c0,1.8579-1.6463,3.7862-4.7188,5.2813-3.0725,1.495-7.4185,2.4375-12.25,2.4375s-9.2088-0.9425-12.281-2.4375c-3.0725-1.4951-4.6875-3.4234-4.6875-5.2813v-0.0312c0.0182-1.8483,1.6323-3.7633,4.6875-5.25,3.0725-1.4951,7.4498-2.4688,12.281-2.4688zm-23.25,0.25,0,6.3438c-0.0236,0.0916-0.03425,0.18665-0.03125,0.28125,0,1.8594-1.6153,3.7864-4.6875,5.2812-3.0722,1.4949-7.4502,2.4688-12.281,2.4688-4.8311,0-9.1778-0.9739-12.25-2.4688s-4.7188-3.4218-4.7188-5.2812c0.001-0.0312,0.001-0.0625,0-0.0937v-6.5c1.0009,1.0245,2.3149,1.9123,3.8438,2.6562,3.4321,1.67,8.0309,2.6875,13.125,2.6875s9.7242-1.0175,13.156-2.6875c1.5412-0.74996,2.847-1.6526,3.8438-2.6875zm0,11,0,6.375c-0.0236,0.092-0.03425,0.1866-0.03125,0.2812,0,1.8594-1.6153,3.7864-4.6875,5.2813-1.0781,0.5246-2.3246,0.9983-3.6875,1.375l-0.15625-0.2813-0.34375-0.6875a1.0001,1.0001,0,0,0,-0.40625,-0.4062c-1.6281-1.8274-4.4602-2.5704-7.6875-2.4688-3.3366,0.105-7.2429,1.0998-11.188,2.9375-0.3648-0.1502-0.72706-0.3055-1.0625-0.4687-3.0722-1.4949-4.7188-3.4219-4.7188-5.2813,0.006-0.062,0.006-0.1252,0-0.1875v-6.4375c1.0017,1.0341,2.3116,1.942,3.8438,2.6875,3.4321,1.67,8.0309,2.6563,13.125,2.6563s9.7242-0.9863,13.156-2.6563c1.5445-0.7515,2.8463-1.6742,3.8438-2.7187zm6.2812,0.90625c0.99488,1.0279,2.2838,1.9436,3.8125,2.6875,3.4318,1.6699,8.0626,2.6563,13.156,2.6563,5.0937,0,9.7245-0.9864,13.156-2.6563,1.5288-0.7439,2.8176-1.6596,3.8125-2.6875v3.0938c-0.004,0.052-0.004,0.1042,0,0.1562,0,1.8594-1.6153,3.7864-4.6875,5.2813s-7.4502,2.4687-12.281,2.4687c-4.8311,0-9.2091-0.9738-12.281-2.4687-3.0722-1.4949-4.6875-3.4219-4.6875-5.2813,0.001-0.031,0.001-0.062,0-0.094v-3.1562zm0,7.6875c0.99325,1.0284,2.2871,1.914,3.8125,2.6563,3.4321,1.67,8.0622,2.6562,13.156,2.6562,5.0941,0,9.7242-0.9862,13.156-2.6562,1.5254-0.7423,2.8192-1.6279,3.8125-2.6563v3.5625c-0.004,0.052-0.004,0.1043,0,0.1563,0,1.8595-1.6153,3.8175-4.6875,5.3125-3.0722,1.4949-7.4502,2.4375-12.281,2.4375-2.4661,0-4.821-0.2482-6.9375-0.6875-1.0213-1.3439-2.56-2.4927-4.4375-3.4063-1.4642-0.7125-3.1564-1.2786-5-1.7187-0.38006-0.6437-0.59375-1.2943-0.59375-1.9375,0.001-0.031,0.001-0.062,0-0.094v-3.625zm-6.2812,2.4375,0,2.3125c-0.42793-0.014-0.84611-0.031-1.2812-0.031-0.60488,0-1.1906,0-1.7812,0.031,1.2062-0.6692,2.2377-1.4487,3.0625-2.3125zm-33.969,0.031c0.92287,0.9528,2.121,1.7898,3.5,2.5-1.2405,0.68-2.4112,1.4231-3.5,2.1875v-4.6875zm17.031,0.4063c3.414-0.1075,5.7628,0.855,6.625,2.5,0.86212,1.6448,0.30773,4.0889-1.7188,6.8437s-5.4412,5.6558-9.7188,7.9063c-4.2776,2.2504-8.586,3.4237-12,3.5312-3.3472,0.1054-5.6612-0.7896-6.5625-2.375-0.01799-0.032-0.04562-0.062-0.0625-0.094-0.01515-0.029-0.01696-0.064-0.03125-0.094-0.79857-1.6443-0.24087-4.0748,1.75-6.7812,2.0265-2.7549,5.4412-5.6558,9.7188-7.9063s8.586-3.4238,12-3.5312zm15.656,3.8437c4.8315,0,9.1775,0.9737,12.25,2.4688,3.0725,1.495,4.7188,3.4233,4.7188,5.2812s-1.6463,3.7862-4.7188,5.2813c-3.0725,1.495-7.4185,2.4687-12.25,2.4687-2.3106,0-4.5214-0.2291-6.5312-0.625,0.36753-0.4254,0.71572-0.852,1.0312-1.2812,2.2624-3.0782,3.2223-6.3699,1.8438-9l-2.1562-4.0938c1.8173-0.3144,3.7681-0.5,5.8125-0.5zm41.5,1.4375,0,2.9688c0,1.8594-1.6155,3.7849-4.6875,5.2812s-7.4505,2.4688-12.281,2.4688c-1.9503,0-3.8167-0.1501-5.5625-0.4375v-3.9688-0.7812c0.002-0.2111-0.0645-0.4223-0.1875-0.5938-0.0102-0.011-0.02065-0.021-0.03125-0.031-0.006-0.022-0.02495-0.04-0.03125-0.062,1.8353,0.2938,3.7837,0.4688,5.8125,0.4688,5.0941,0,9.7242-0.9862,13.156-2.6563,1.5254-0.7422,2.8192-1.6279,3.8125-2.6562zm-48.469,1.0938,1.5625,3c0.86254,1.6456,0.30702,4.1188-1.7188,6.875-2.0258,2.7561-5.4415,5.6247-9.7188,7.875-4.2772,2.2502-8.612,3.4538-12.031,3.5625-3.4193,0.1086-5.7632-0.8557-6.625-2.5l-1.5312-2.9688c1.3529,0.4414,2.9354,0.6469,4.625,0.5938,3.8132-0.1201,8.3653-1.4087,12.875-3.7813s8.1428-5.3918,10.406-8.4687c1.018-1.3839,1.7553-2.8016,2.1562-4.1875zm22.875,10.562c0.34878,0.09,0.7019,0.2026,1.0625,0.2812v2.1563c0,1.8594-1.6155,3.7849-4.6875,5.2812s-7.4504,2.4688-12.281,2.4688c-4.8309,0-9.2034-0.9722-12.281-2.4688-0.27218-0.1323-0.53213-0.2675-0.78125-0.4062,1.8591-1.1913,3.4981-2.4947,4.9062-3.8438,2.4773,0.5914,5.2359,0.9375,8.1562,0.9375,5.0937,0,9.7245-0.9864,13.156-2.6562,1.0416-0.5069,1.9482-1.1026,2.75-1.75z"></path></g></svg>