<?xml version="1.0" encoding="UTF-8"?>
<!DOCTYPE svg PUBLIC "-//W3C//DTD SVG 1.1//EN" "http://www.w3.org/Graphics/SVG/1.1/DTD/svg11.dtd">
<!-- Creator: CorelDRAW 2019 (64-Bit) -->
<svg xmlns="http://www.w3.org/2000/svg" xml:space="preserve" width="98.9599mm" height="98.9599mm" version="1.1" style="shape-rendering:geometricPrecision; text-rendering:geometricPrecision; image-rendering:optimizeQuality; fill-rule:evenodd; clip-rule:evenodd"
viewBox="0 0 1153.26 1153.26"
 xmlns:xlink="http://www.w3.org/1999/xlink"
 xmlns:xodm="http://www.corel.com/coreldraw/odm/2003">
 <defs>
  <style type="text/css">
   <![CDATA[
    .fil0 {fill:#EEEEEF}
   ]]>
  </style>
 </defs>
 <g id="图层_x0020_1">
  <metadata id="CorelCorpID_0Corel-Layer"/>
  <path class="fil0" d="M817.53 313.4c-66.53,-63.16 -147.77,-93.64 -240.97,-95.11 -194.6,0 -352.96,160.75 -352.96,358.34 0,197.57 158.35,358.34 352.97,358.34 89.31,0 174.54,-33.94 239.96,-95.56 13.01,-12.24 13.78,-32.85 1.71,-46.02 -6.01,-6.65 -14.56,-10.44 -23.52,-10.44 -8.11,0 -15.92,3.11 -21.82,8.68 -53.01,50.2 -123.27,78.18 -196.28,78.18 0,0 -0.07,0 -0.07,0 -85.26,0 -161.99,-37.74 -214.9,-97.59l150.73 -242.02 0 111.57c0,53.59 20.79,70.91 38.21,75.98 17.45,5.07 44.1,1.61 72.08,-43.84l82.91 -134.4c2.65,-4.33 5.11,-8.07 7.34,-11.31l0 67.96c0,50.1 20.06,90.16 55.05,109.89 31.53,17.79 71.18,16.19 103.48,-4.19 39.16,-24.74 60.25,-70.31 58.05,-125.23 -1.21,-78.56 -29.84,-185.25 -111.98,-263.22zm20.03 333.15c-12.5,7.9 -27.22,8.88 -38.41,2.57 -14.21,-8.02 -22.03,-26.81 -22.03,-52.94l0 -78.19c0,-37.76 -14.93,-64.63 -39.89,-71.88 -42.3,-12.32 -74.11,39.43 -86.07,58.87l-74.6 120.96 0 -147.84c-0.84,-34.02 -11.89,-54.36 -32.86,-60.5 -13.88,-4.06 -34.64,-2.43 -54.81,28.44l-167.15 268.38c-22.28,-42.36 -33.98,-89.56 -33.98,-137.44 0,-0.1 0,-0.25 0,-0.36 0,-161.67 129.56,-293.19 288.8,-293.19 159.24,0 288.79,131.52 288.79,293.19 0,0.28 0.07,0.52 0.08,0.79 0,0.28 -0.05,0.52 -0.03,0.8 1.51,31.31 -8.64,56.22 -27.85,68.35l0 -0.02z"/>
  <path class="fil0" d="M1153.25 574.09c0.01,0.85 0.01,1.7 0.01,2.54 0,318.41 -258.22,576.63 -576.63,576.63 -318.41,0 -576.63,-258.22 -576.63,-576.63 0,-317.42 256.67,-575.29 574.09,-576.63l-0.02 0.01c0.86,-0.01 1.71,-0.01 2.55,-0.01 317.42,0 575.29,256.67 576.63,574.09l-0.01 -0.01zm-43.25 0.21c0.01,0.87 0.01,1.78 0.01,2.63 0,294.48 -238.82,533.3 -533.3,533.3 -294.48,0 -533.3,-238.82 -533.3,-533.3 0,-293.57 237.32,-532 530.89,-533.3l-0.02 0.01c0.78,-0.01 1.57,-0.01 2.35,-0.01 293.49,0 531.88,237.16 533.38,530.65l-0.01 0.02z"/>
 </g>
</svg>
