<?xml version="1.0" encoding="UTF-8"?>
<!DOCTYPE svg PUBLIC "-//W3C//DTD SVG 1.1//EN" "http://www.w3.org/Graphics/SVG/1.1/DTD/svg11.dtd">
<!-- Creator: CorelDRAW 2019 (64-Bit) -->
<svg xmlns="http://www.w3.org/2000/svg" xml:space="preserve" width="98.9599mm" height="98.9599mm" version="1.1" style="shape-rendering:geometricPrecision; text-rendering:geometricPrecision; image-rendering:optimizeQuality; fill-rule:evenodd; clip-rule:evenodd"
viewBox="0 0 50901.61 50901.61"
 xmlns:xlink="http://www.w3.org/1999/xlink"
 xmlns:xodm="http://www.corel.com/coreldraw/odm/2003">
 <defs>
  <style type="text/css">
   <![CDATA[
    .fil0 {fill:#EEEEEF}
   ]]>
  </style>
 </defs>
 <g id="图层_x0020_1">
  <metadata id="CorelCorpID_0Corel-Layer"/>
  <g id="_2220636584016">
   <path class="fil0" d="M50901.35 25338.59c0.26,37.65 0.26,74.94 0.26,112.23 0,14053.66 -11397.12,25450.78 -25450.83,25450.78 -14053.66,0 -25450.78,-11397.12 -25450.78,-25450.78 0,-14010.2 11328.76,-25391.78 25338.95,-25450.83l-0.87 0.26c38.17,-0.26 75.46,-0.26 112.7,-0.26 14010.25,0 25391.78,11328.76 25450.83,25338.95l-0.26 -0.36zm-1908.81 9.21c0.31,38.37 0.31,78.6 0.31,115.89 0,12997.67 -10540.64,23538.36 -23538.31,23538.36 -12997.62,0 -23538.31,-10540.7 -23538.31,-23538.36 0,-12957.39 10474.6,-23480.81 23431.99,-23538.26l-0.93 0.26c34.62,-0.26 69.08,-0.26 103.54,-0.26 12953.74,0 23475.92,10467.55 23542.02,23421.29l-0.31 1.08z"/>
   <path class="fil0" d="M25883.92 3441.62c745.06,-131.21 1505.14,-199.16 2262.03,-199.16 756.89,0 1516.92,67.95 2261.2,199.11 1509.36,238.97 2973.6,730.4 4321.75,1447.43 1342.6,737.7 2502.65,1739.12 3657.14,2677.84 1154.49,938.72 2303.49,1899.61 3397.13,2950.81 1116.23,1033.41 2093.26,2214.29 2897.99,3504.43 827.56,1280.72 1510.23,2655.77 2027.06,4089.31 983,2888.11 1324.18,5999.41 833.63,8966.84l-144.59 -0.51c-492.4,-2941.61 -1160.05,-5744.9 -2213.11,-8411.68 -491.84,-1334.42 -1079.4,-2653.36 -1742.83,-3912.32 -688.63,-1267.71 -1460.8,-2505.89 -2289.39,-3687.59 -843.87,-1191.99 -1884.23,-2242.17 -3067.88,-3098.54 -1195.03,-852.05 -2569.05,-1403.5 -3898.74,-1927.28 -1329.74,-523.78 -2648.73,-1060.57 -4035.61,-1458.9 -1386.83,-398.38 -2795.89,-697.17 -4267.59,-986.71l1.8 -153.08z"/>
   <path class="fil0" d="M37390.29 17039.4c-1707.8,-494.25 -3478.3,-1195.08 -5270.91,-1903.31l-2.06 -8.8 2.06 1.44c-1.65,-4.89 -3.5,-9.52 -5.2,-14.4 -31.99,-128.54 -87.8,-266.03 -170,-412.68 -1093.03,-2283.01 -3993.79,-2558.56 -6405.14,-1808.15 7.46,0.51 15.53,1.29 23.2,1.95l-23.2 5.4c-2098.77,-494.25 -4171.71,-669.5 -6161.69,-184.45 -16275.57,4483.42 -7046.87,15421.72 -13022.26,26417.22 850.2,1803.68 10014.35,12327.04 23274.55,9503.48 0,0 -4535.01,-10897.77 5698.76,-16128.05 8301.04,-4258.44 14298.6,-12137.08 2061.89,-15469.66zm-10722.52 2616.99c0,0.72 0,1.29 0,1.85 0,2513.4 -2038.23,4551.62 -4551.62,4551.62 -2513.35,0 -4551.62,-2038.23 -4551.62,-4551.62 0,-2512.83 2037.15,-4551.11 4549.98,-4551.68l-0.21 0c0.05,0 0.05,0 0.05,0 2512.27,0 4549.93,2035.5 4551.57,4547.82l1.85 2.01zm16275.62 6716.8c-1145.29,1043.8 -2508.2,1816.59 -3895.09,2498.94 -1399.8,662.45 -2869.85,1200.07 -4370.31,1591.86 -1504.93,389.17 -3074.42,682.41 -4664.17,538.54 -1589.75,-143.87 -3214.58,-684.21 -4267.59,-1875.64l49.74 -57.15c1291.01,837.28 2781.18,1132.38 4263.94,1174.76 198.34,4.27 410.36,9.16 612.71,9.16 1296.92,0 2598.68,-126.79 3868.75,-377.85 1486.26,-310.47 2950.4,-767.64 4354.83,-1347.33 1407.15,-580.92 2799.59,-1254.08 3998.37,-2213.11l48.81 57.81zm-3542.85 -2176.23c0.05,1.8 0.05,3.7 0.05,5.5 0,544.87 -441.84,986.71 -986.71,986.71 -544.82,0 -986.71,-441.84 -986.71,-986.71 0,-542.66 438.5,-983.67 981.15,-986.66 1.18,0 2.52,0 3.7,0 542.96,0 984.55,438.24 988.56,981.15l-0.05 0z"/>
   <path class="fil0" d="M25317.76 19696.98c0.05,1767.93 -1433.69,3201.62 -3201.62,3201.62 -1767.88,0 -3201.62,-1433.69 -3201.62,-3201.62 0,-1767.93 1433.74,-3201.67 3201.62,-3201.67l0 0c1767.93,0 3201.67,1433.74 3201.67,3201.67l-0.05 0z"/>
   <path class="fil0" d="M43087.26 26203.5c-3688.52,2598.58 -7882.4,4570.09 -13831.97,4570.09 -2784.83,0 -3349.19,-2950.81 -5189.75,-1508.64 -949.83,748.76 -4299.02,2423.38 -6956.59,2296.13 -2657.57,-127.25 -6965.8,-1683.78 -8166.38,-7358.57 -475.84,5674.79 -719.24,9852.01 -2856.74,14641.58 4241.77,6792.41 14355.7,12031.95 23536.46,9774.6 -979.3,-6888.34 5049.58,-13634.66 8431.95,-17081.58 1291.01,-1307.57 3743.86,-3441.37 5032.97,-5331.76l0.05 -1.85z"/>
  </g>
 </g>
</svg>
